<svg xmlns="http://www.w3.org/2000/svg" fill-rule="evenodd" stroke-linejoin="round" stroke-miterlimit="2" clip-rule="evenodd" viewBox="0 0 64 64" id="messenger"><path fill="none" d="M0 0h64v64H0z"></path><path d="M59 32C59 17.65 47.35 6 33 6S7 17.65 7 32a25.995 25.995 0 0 0 6.312 16.981l-1.3 7.856a1.001 1.001 0 0 0 1.364 1.09l7.38-2.991A26 26 0 0 0 33 58c14.35 0 26-11.65 26-26Zm-9.967-7.265a1 1 0 0 0-1.365-1.366c-3.98 2.29-10.227 5.888-10.227 5.888l-9.29-5.364a2 2 0 0 0-2.732.732l-8.452 14.64a1 1 0 0 0 1.365 1.366l10.227-5.888 9.29 5.364a2 2 0 0 0 2.732-.732l8.452-14.64Z"></path></svg>