<svg xmlns="http://www.w3.org/2000/svg" viewBox="0 0 188.61 106.88"><title>OLX logo - Brandlogos.net</title><path d="M413.48,437.44H387.88V330.56h25.61ZM378.66,384a44.25,44.25,0,0,1-44.47,44c-24.55,0-44.5-19.73-44.5-44a44.27,44.27,0,0,1,44.47-44C358.71,340,378.66,359.68,378.66,384Zm-31,0a13.47,13.47,0,1,0-13.47,13.34A13.39,13.39,0,0,0,347.66,384Zm130.58-26.78h-17l-10,9.88-10-9.88h-17v17.13l9.85,9.75-9.85,9.75v16.9h17.26l9.75-9.65,9.74,9.65h17.26v-16.9l-9.84-9.75,9.84-9.75V357.24Z" transform="translate(-289.69 -330.56)" fill="#023020"/></svg>