<?xml version="1.0" standalone="no"?>
<!DOCTYPE svg PUBLIC "-//W3C//DTD SVG 20010904//EN"
 "http://www.w3.org/TR/2001/REC-SVG-20010904/DTD/svg10.dtd">
<svg version="1.0" xmlns="http://www.w3.org/2000/svg"
 width="1080.000000pt" height="1080.000000pt" viewBox="0 0 1080.000000 1080.000000"
 preserveAspectRatio="xMidYMid meet">

<g transform="translate(0.000000,1080.000000) scale(0.100000,-0.100000)"
fill="#000000" stroke="none">
<path d="M5967 6902 c-15 -16 -17 -50 -17 -276 l0 -257 -22 -8 c-13 -5 -26 -6
-30 -2 -3 3 -27 55 -52 115 -53 127 -67 146 -112 146 -34 0 -64 -28 -64 -60 0
-9 22 -70 49 -135 49 -117 52 -145 18 -145 -6 0 -93 81 -192 180 -190 189
-204 198 -253 164 -16 -11 -22 -25 -22 -51 0 -34 13 -50 182 -220 170 -170
181 -184 166 -200 -16 -15 -25 -13 -129 30 -61 26 -126 47 -145 47 -57 0 -85
-68 -43 -106 11 -10 71 -40 132 -65 99 -41 112 -50 115 -73 l3 -26 -261 0
-261 0 -24 -25 c-30 -29 -32 -55 -6 -86 19 -24 19 -24 283 -27 l264 -3 18 -57
c29 -100 19 -104 198 75 165 163 205 193 255 193 65 0 133 -73 133 -143 0 -36
-10 -49 -149 -195 -82 -86 -160 -168 -175 -181 -14 -14 -26 -28 -26 -33 0 -4
34 -18 75 -30 l75 -22 0 -263 c0 -250 1 -264 20 -283 26 -26 51 -25 84 1 l26
20 0 264 c0 262 0 263 22 268 12 4 24 5 26 3 1 -2 25 -57 52 -122 51 -122 75
-154 115 -154 24 0 65 42 65 65 0 7 -23 67 -51 135 -86 209 -55 204 171 -26
94 -96 183 -180 197 -185 16 -6 32 -5 46 2 29 16 37 28 37 63 0 25 -29 59
-184 215 -170 171 -184 188 -171 205 13 18 19 16 139 -34 69 -28 135 -50 147
-48 32 5 63 50 55 82 -7 29 -46 51 -184 106 -88 35 -95 40 -86 64 5 13 42 15
266 18 l260 3 24 28 c28 33 25 61 -8 90 -18 15 -47 17 -278 17 -257 0 -258 0
-263 22 -4 12 -5 23 -3 25 1 1 56 25 122 52 129 54 161 80 150 125 -3 14 -18
33 -32 43 -25 16 -29 15 -154 -35 -70 -29 -132 -52 -138 -52 -6 0 -14 10 -17
21 -6 18 22 51 174 203 159 159 181 185 181 213 0 22 -7 37 -22 47 -49 34 -63
25 -253 -164 -99 -99 -186 -180 -192 -180 -6 0 -16 6 -22 13 -8 11 1 44 41
141 50 121 52 128 37 154 -11 21 -23 28 -55 30 -25 2 -45 -2 -51 -10 -6 -7
-33 -66 -60 -131 -27 -65 -53 -118 -56 -118 -4 1 -16 1 -27 1 -19 0 -20 7 -20
260 0 247 -1 261 -20 280 -25 25 -72 26 -93 2z"/>
<path d="M3807 5982 l-47 -47 598 -598 597 -597 563 563 c601 601 590 589 542
637 -48 48 -39 55 -585 -490 -281 -280 -515 -510 -520 -510 -6 0 -255 245
-555 545 l-545 545 -48 -48z"/>
</g>
</svg>
